<?xml version="1.0" encoding="utf-8"?>
<!-- Generator: Adobe Illustrator 21.1.0, SVG Export Plug-In . SVG Version: 6.00 Build 0)  -->
<svg version="1.1" id="레이어_1" xmlns="http://www.w3.org/2000/svg" xmlns:xlink="http://www.w3.org/1999/xlink" x="0px"
	 y="0px" viewBox="0 0 290.7 299.9" style="enable-background:new 0 0 290.7 299.9;" xml:space="preserve">
<style type="text/css">
	.st0{fill:#F4C51F;}
	.st1{fill:#212B6A;}
	.st2{fill-rule:evenodd;clip-rule:evenodd;fill:#126D38;}
</style>
<path class="st0" d="M51.2,17.5v161.4c0,35.4,45.5,51.7,93.6,68.9l0.1,0l0.1,0c48.1-17.2,93.6-33.5,93.6-68.9V17.5H51.2z"/>
<path class="st1" d="M162.2,172.1v-41.7h-7.5c-0.8,4.4-2.5,6.5-6,7.4v6.7h4.2v27.6H162.2z M83.8,138.5h13.7l3.4,33.6h18.8l-16.7-141
	H77.5l-15.2,141h18.6L83.8,138.5z M90.2,66.2l5.7,55.8H85.3L90.2,66.2z M170.4,90.3V61.1c0-14.4-1.1-18.8-5.5-23.5
	c-4.4-4.4-10.4-6.6-18.8-6.6h-24.7v88.6h23.9C163.6,119.7,170.4,111.7,170.4,90.3 M140.1,102.8V48h1.7c8,0.2,9.7,1.9,9.7,10.1v34.5
	c0,8.2-1.7,10.2-9.7,10.2H140.1z M188.6,172.1l3-33.6h13.7l3.4,33.6h18.8l-16.7-141h-25.6l-15.2,141H188.6z M197.9,66.2l5.7,55.8
	H193L197.9,66.2z M144.2,130.4h-21.3v8.4h11.4l-6.9,33.3h9.6l7.1-34.2V130.4z M40.4,6.7v172.2c0,19.6,10.6,35.8,32.5,49.6
	c18.6,11.7,42.7,20.3,68.2,29.5l3.7,1.3l3.7-1.3c25.5-9.1,49.6-17.8,68.2-29.5c21.9-13.8,32.5-30,32.5-49.6V6.7H40.4z M238.6,178.9
	c0,35.4-45.5,51.7-93.6,68.9l-0.1,0l-0.1,0c-48.1-17.2-93.6-33.5-93.6-68.9V17.5h187.3V178.9z M139.5,211.8c1.3,0.2,2.2-0.8,3.1-1
	c-1.6-0.8-3.8-2.3-5-3.9C136.8,209.3,137.8,211.5,139.5,211.8 M147.2,210.8c0.9,0.2,1.8,1.2,3.1,1c1.7-0.3,2.7-2.4,1.9-4.9
	C151,208.5,148.8,210,147.2,210.8 M103.4,207.9l-23.2-3.7c2.4,7.1,42.4,22.1,62.4,27.7c1.3-2,2.3-3.6,2.3-3.6s1,1.6,2.3,3.6
	c19.9-5.6,60-20.6,62.3-27.7l-23.2,3.7c24.4-8.5,37.8-11.7,42.3-27.8c0,0-27.3,7.1-63.6,16.4c-6.3,1.6-7.8,5.3-8.8,10.7
	c-0.8,4.2-3,6.6-7.6,7.9c-1.5,4.2-3.8,5.4-3.8,5.4s-2.3-1.3-3.8-5.4c-4.6-1.3-6.8-3.7-7.6-7.9c-1-5.4-2.5-9.1-8.8-10.7
	c-36.3-9.3-63.6-16.4-63.6-16.4C65.6,196.2,79,199.4,103.4,207.9"/>
<path class="st2" d="M245.1,253c13.1-5,14.9-11.5,26.7-14.3c-6.3-1.8-13.6-2.8-21.1-2.9c15-5.8,23.7-19.9,33.5-22.4
	c-7-1.5-13.3-1.8-18.9-0.9c9.9-7,18.2-19.8,15.8-35.7c-3.5,7.2-10.2,11.7-15.5,16.2c5.3-9.1,10.5-23.9-3.4-35
	c0.2,5.4,0.1,9.8,0.1,18c0,15.4-3.6,26.3-10.3,37.2c-6.9,11.2-17.4,20.3-33.9,29.8c-10.9,6.2-23.2,10.6-35.4,15
	c-12.9,4.7-26.1,9.3-37.8,16.4c-11.8-7.1-24.9-11.7-37.8-16.4c-12.2-4.4-24.5-8.8-35.4-15c-16.6-9.5-27.1-18.6-33.9-29.8
	C31,202.3,27.5,191.4,27.5,176c0-8.2-0.1-12.6,0.1-18c-13.8,11.1-8.7,25.9-3.4,35c-5.3-4.5-12-9-15.5-16.2c-2.3,16,6,28.7,15.8,35.7
	c-5.6-1-11.9-0.6-18.9,0.9c9.8,2.5,18.5,16.6,33.5,22.4c-7.4,0.1-14.8,1.1-21.1,2.9c11.7,2.8,13.6,9.3,26.7,14.3
	c8.3,3.2,18.6,3.4,27.2,2.7c-10.6,3-21.8,8.4-27.5,15.4c14.6-1.3,23.1,0.7,32.9,3.7c11.6,3.5,30.7,2.3,39.1-8.4
	c8,3.2,16,6.7,23.4,11.3c-4.6,3.2-8.9,6.8-12.8,11.1l4.1,4.3c4.3-4.7,9-8.6,13.9-12.1c4.9,3.4,9.6,7.4,13.9,12.1l4.1-4.3
	c-3.9-4.3-8.2-7.9-12.8-11.1c7.5-4.5,15.4-8.1,23.4-11.3c8.4,10.6,27.5,11.9,39.1,8.4c9.8-3,18.3-5,32.9-3.7
	c-5.7-7-16.9-12.4-27.5-15.4C226.5,256.4,236.8,256.2,245.1,253"/>
</svg>
